HIERARCHY
ROOT Hips
{
	OFFSET -335.845001 -574.368103 89.378365
	CHANNELS 6 Xposition Yposition Zposition Zrotation Yrotation Xrotation
	JOINT Spine
	{
		OFFSET 0.000000 2.080078 8.814247
		CHANNELS 6 Xposition Yposition Zposition Zrotation Yrotation Xrotation
		JOINT Spine1
		{
			OFFSET 0.000000 0.000000 8.844139
			CHANNELS 6 Xposition Yposition Zposition Zrotation Yrotation Xrotation
			JOINT Spine2
			{
				OFFSET 0.000000 0.000000 11.682266
				CHANNELS 6 Xposition Yposition Zposition Zrotation Yrotation Xrotation
				JOINT Spine3
				{
					OFFSET 0.000000 0.000000 11.746696
					CHANNELS 6 Xposition Yposition Zposition Zrotation Yrotation Xrotation
					JOINT Neck
					{
						OFFSET 0.000000 0.000000 17.658264
						CHANNELS 6 Xposition Yposition Zposition Zrotation Yrotation Xrotation
						JOINT Neck1
						{
							OFFSET 0.000000 0.000000 5.101517
							CHANNELS 6 Xposition Yposition Zposition Zrotation Yrotation Xrotation
							JOINT Head
							{
								OFFSET 0.000000 0.000000 5.101517
								CHANNELS 6 Xposition Yposition Zposition Zrotation Yrotation Xrotation
								JOINT HeadEnd
								{
									OFFSET 0.000000 0.000000 11.655090
									CHANNELS 6 Xposition Yposition Zposition Zrotation Yrotation Xrotation
									End Site
									{
										OFFSET 0.000000 0.000000 0.100006
									}
								}
							}
						}
					}
					JOINT RightShoulder
					{
						OFFSET -2.625397 0.000000 11.175217
						CHANNELS 6 Xposition Yposition Zposition Zrotation Yrotation Xrotation
						JOINT RightArm
						{
							OFFSET 0.000000 0.000000 10.434708
							CHANNELS 6 Xposition Yposition Zposition Zrotation Yrotation Xrotation
							JOINT RightForeArm
							{
								OFFSET 0.000000 0.000000 29.628418
								CHANNELS 6 Xposition Yposition Zposition Zrotation Yrotation Xrotation
								JOINT RightHand
								{
									OFFSET 0.000000 0.000000 22.857605
									CHANNELS 6 Xposition Yposition Zposition Zrotation Yrotation Xrotation
									JOINT RightHandThumb1
									{
										OFFSET -2.867310 -2.944275 3.959564
										CHANNELS 6 Xposition Yposition Zposition Zrotation Yrotation Xrotation
										JOINT RightHandThumb2
										{
											OFFSET 0.000000 0.000000 3.350403
											CHANNELS 6 Xposition Yposition Zposition Zrotation Yrotation Xrotation
											JOINT RightHandThumb3
											{
												OFFSET 0.000000 0.000000 3.756516
												CHANNELS 6 Xposition Yposition Zposition Zrotation Yrotation Xrotation
												JOINT RightHandThumb4
												{
													OFFSET 0.000000 0.000000 3.147339
													CHANNELS 6 Xposition Yposition Zposition Zrotation Yrotation Xrotation
													End Site
													{
														OFFSET 0.000000 0.000000 0.100006
													}
												}
											}
										}
									}
									JOINT RightHandIndex1
									{
										OFFSET -0.086761 -2.345276 10.030899
										CHANNELS 6 Xposition Yposition Zposition Zrotation Yrotation Xrotation
										JOINT RightHandIndex2
										{
											OFFSET 0.000000 0.000000 4.061096
											CHANNELS 6 Xposition Yposition Zposition Zrotation Yrotation Xrotation
											JOINT RightHandIndex3
											{
												OFFSET 0.000000 0.000000 3.248871
												CHANNELS 6 Xposition Yposition Zposition Zrotation Yrotation Xrotation
												JOINT RightHandIndex4
												{
													OFFSET 0.000000 0.000000 2.639709
													CHANNELS 6 Xposition Yposition Zposition Zrotation Yrotation Xrotation
													End Site
													{
														OFFSET 0.000000 0.000000 0.100006
													}
												}
											}
										}
									}
									JOINT RightHandMiddle1
									{
										OFFSET 0.104095 -0.006775 9.502945
										CHANNELS 6 Xposition Yposition Zposition Zrotation Yrotation Xrotation
										JOINT RightHandMiddle2
										{
											OFFSET 0.000000 0.000000 4.568726
											CHANNELS 6 Xposition Yposition Zposition Zrotation Yrotation Xrotation
											JOINT RightHandMiddle3
											{
												OFFSET 0.000000 0.000000 3.654984
												CHANNELS 6 Xposition Yposition Zposition Zrotation Yrotation Xrotation
												JOINT RightHandMiddle4
												{
													OFFSET 0.000000 0.000000 2.741241
													CHANNELS 6 Xposition Yposition Zposition Zrotation Yrotation Xrotation
													End Site
													{
														OFFSET 0.000000 0.000000 0.100006
													}
												}
											}
										}
									}
									JOINT RightHandRing1
									{
										OFFSET 0.086761 2.267456 8.921707
										CHANNELS 6 Xposition Yposition Zposition Zrotation Yrotation Xrotation
										JOINT RightHandRing2
										{
											OFFSET 0.000000 0.000000 4.061096
											CHANNELS 6 Xposition Yposition Zposition Zrotation Yrotation Xrotation
											JOINT RightHandRing3
											{
												OFFSET 0.000000 0.000000 3.654984
												CHANNELS 6 Xposition Yposition Zposition Zrotation Yrotation Xrotation
												JOINT RightHandRing4
												{
													OFFSET 0.000000 0.000000 2.741241
													CHANNELS 6 Xposition Yposition Zposition Zrotation Yrotation Xrotation
													End Site
													{
														OFFSET 0.000000 0.000000 0.100006
													}
												}
											}
										}
									}
									JOINT RightHandPinky1
									{
										OFFSET -0.173492 4.467224 7.976990
										CHANNELS 6 Xposition Yposition Zposition Zrotation Yrotation Xrotation
										JOINT RightHandPinky2
										{
											OFFSET 0.000000 0.000000 3.350403
											CHANNELS 6 Xposition Yposition Zposition Zrotation Yrotation Xrotation
											JOINT RightHandPinky3
											{
												OFFSET 0.000000 0.000000 2.842758
												CHANNELS 6 Xposition Yposition Zposition Zrotation Yrotation Xrotation
												JOINT RightHandPinky4
												{
													OFFSET 0.000000 0.000000 2.639709
													CHANNELS 6 Xposition Yposition Zposition Zrotation Yrotation Xrotation
													End Site
													{
														OFFSET 0.000000 0.000000 0.100006
													}
												}
											}
										}
									}
									JOINT RightForeArmEnd
									{
										OFFSET 0.000000 0.000000 0.000000
										CHANNELS 6 Xposition Yposition Zposition Zrotation Yrotation Xrotation
										End Site
										{
											OFFSET 0.000000 0.000000 0.100006
										}
									}
								}
								JOINT RightArmEnd
								{
									OFFSET 0.000000 0.000000 0.000000
									CHANNELS 6 Xposition Yposition Zposition Zrotation Yrotation Xrotation
									End Site
									{
										OFFSET 0.000000 0.000000 0.100006
									}
								}
							}
						}
					}
					JOINT LeftShoulder
					{
						OFFSET 2.625397 0.000000 11.175217
						CHANNELS 6 Xposition Yposition Zposition Zrotation Yrotation Xrotation
						JOINT LeftArm
						{
							OFFSET 0.000000 0.000000 10.813629
							CHANNELS 6 Xposition Yposition Zposition Zrotation Yrotation Xrotation
							JOINT LeftForeArm
							{
								OFFSET 0.000000 0.000000 28.724777
								CHANNELS 6 Xposition Yposition Zposition Zrotation Yrotation Xrotation
								JOINT LeftHand
								{
									OFFSET 0.644379 0.328857 25.716171
									CHANNELS 6 Xposition Yposition Zposition Zrotation Yrotation Xrotation
									JOINT LeftHandThumb1
									{
										OFFSET 2.867310 -2.944275 3.959564
										CHANNELS 6 Xposition Yposition Zposition Zrotation Yrotation Xrotation
										JOINT LeftHandThumb2
										{
											OFFSET 0.000000 0.000000 3.350403
											CHANNELS 6 Xposition Yposition Zposition Zrotation Yrotation Xrotation
											JOINT LeftHandThumb3
											{
												OFFSET 0.000000 0.000000 3.756516
												CHANNELS 6 Xposition Yposition Zposition Zrotation Yrotation Xrotation
												JOINT LeftHandThumb4
												{
													OFFSET 0.000000 0.000000 3.100006
													CHANNELS 6 Xposition Yposition Zposition Zrotation Yrotation Xrotation
													End Site
													{
														OFFSET 0.000000 0.000000 0.100006
													}
												}
											}
										}
									}
									JOINT LeftHandIndex1
									{
										OFFSET 0.086761 -2.345276 10.030899
										CHANNELS 6 Xposition Yposition Zposition Zrotation Yrotation Xrotation
										JOINT LeftHandIndex2
										{
											OFFSET 0.000000 0.000000 4.061096
											CHANNELS 6 Xposition Yposition Zposition Zrotation Yrotation Xrotation
											JOINT LeftHandIndex3
											{
												OFFSET 0.000000 0.000000 3.248871
												CHANNELS 6 Xposition Yposition Zposition Zrotation Yrotation Xrotation
												JOINT LeftHandIndex4
												{
													OFFSET 0.000000 0.000000 2.639709
													CHANNELS 6 Xposition Yposition Zposition Zrotation Yrotation Xrotation
													End Site
													{
														OFFSET 0.000000 0.000000 0.100006
													}
												}
											}
										}
									}
									JOINT LeftHandMiddle1
									{
										OFFSET -0.104095 -0.006775 9.502945
										CHANNELS 6 Xposition Yposition Zposition Zrotation Yrotation Xrotation
										JOINT LeftHandMiddle2
										{
											OFFSET 0.000000 0.000000 4.568726
											CHANNELS 6 Xposition Yposition Zposition Zrotation Yrotation Xrotation
											JOINT LeftHandMiddle3
											{
												OFFSET 0.000000 0.000000 3.654984
												CHANNELS 6 Xposition Yposition Zposition Zrotation Yrotation Xrotation
												JOINT LeftHandMiddle4
												{
													OFFSET 0.000000 0.000000 2.741241
													CHANNELS 6 Xposition Yposition Zposition Zrotation Yrotation Xrotation
													End Site
													{
														OFFSET 0.000000 0.000000 0.100006
													}
												}
											}
										}
									}
									JOINT LeftHandRing1
									{
										OFFSET -0.086761 2.267456 8.921707
										CHANNELS 6 Xposition Yposition Zposition Zrotation Yrotation Xrotation
										JOINT LeftHandRing2
										{
											OFFSET 0.000000 0.000000 4.061096
											CHANNELS 6 Xposition Yposition Zposition Zrotation Yrotation Xrotation
											JOINT LeftHandRing3
											{
												OFFSET 0.000000 0.000000 3.654984
												CHANNELS 6 Xposition Yposition Zposition Zrotation Yrotation Xrotation
												JOINT LeftHandRing4
												{
													OFFSET 0.000000 0.000000 2.741241
													CHANNELS 6 Xposition Yposition Zposition Zrotation Yrotation Xrotation
													End Site
													{
														OFFSET 0.000000 0.000000 0.100006
													}
												}
											}
										}
									}
									JOINT LeftHandPinky1
									{
										OFFSET 0.173492 4.467224 7.976990
										CHANNELS 6 Xposition Yposition Zposition Zrotation Yrotation Xrotation
										JOINT LeftHandPinky2
										{
											OFFSET 0.000000 0.000000 3.350403
											CHANNELS 6 Xposition Yposition Zposition Zrotation Yrotation Xrotation
											JOINT LeftHandPinky3
											{
												OFFSET 0.000000 0.000000 2.842758
												CHANNELS 6 Xposition Yposition Zposition Zrotation Yrotation Xrotation
												JOINT LeftHandPinky4
												{
													OFFSET 0.000000 0.000000 2.639709
													CHANNELS 6 Xposition Yposition Zposition Zrotation Yrotation Xrotation
													End Site
													{
														OFFSET 0.000000 0.000000 0.100006
													}
												}
											}
										}
									}
									JOINT LeftForeArmEnd
									{
										OFFSET 0.000000 0.000000 0.000000
										CHANNELS 6 Xposition Yposition Zposition Zrotation Yrotation Xrotation
										End Site
										{
											OFFSET 0.000000 0.000000 0.100006
										}
									}
								}
								JOINT LeftArmEnd
								{
									OFFSET 0.000000 0.000000 0.000000
									CHANNELS 6 Xposition Yposition Zposition Zrotation Yrotation Xrotation
									End Site
									{
										OFFSET 0.000000 0.000000 0.100006
									}
								}
							}
						}
					}
				}
			}
		}
	}
	JOINT RightUpLeg
	{
		OFFSET -11.289948 0.000000 0.000000
		CHANNELS 6 Xposition Yposition Zposition Zrotation Yrotation Xrotation
		JOINT RightLeg
		{
			OFFSET 0.000000 0.000000 -38.200329
			CHANNELS 6 Xposition Yposition Zposition Zrotation Yrotation Xrotation
			JOINT RightFoot
			{
				OFFSET 0.000000 0.000000 -39.900856
				CHANNELS 6 Xposition Yposition Zposition Zrotation Yrotation Xrotation
				JOINT RightToeBase
				{
					OFFSET 0.000000 -15.261658 0.000002
					CHANNELS 6 Xposition Yposition Zposition Zrotation Yrotation Xrotation
					JOINT RightToeBaseEnd
					{
						OFFSET 0.000000 -7.370728 0.000000
						CHANNELS 6 Xposition Yposition Zposition Zrotation Yrotation Xrotation
						End Site
						{
							OFFSET 0.000000 0.000000 0.100000
						}
					}
				}
				JOINT RightLegEnd
				{
					OFFSET 0.000000 0.000000 0.000000
					CHANNELS 6 Xposition Yposition Zposition Zrotation Yrotation Xrotation
					End Site
					{
						OFFSET 0.000000 0.000000 0.100000
					}
				}
			}
			JOINT RightUpLegEnd
			{
				OFFSET 0.000000 0.000000 0.000000
				CHANNELS 6 Xposition Yposition Zposition Zrotation Yrotation Xrotation
				End Site
				{
					OFFSET 0.000000 0.000000 0.099998
				}
			}
		}
	}
	JOINT LeftUpLeg
	{
		OFFSET 11.315674 0.000000 0.000000
		CHANNELS 6 Xposition Yposition Zposition Zrotation Yrotation Xrotation
		JOINT LeftLeg
		{
			OFFSET 0.000000 0.000000 -38.200329
			CHANNELS 6 Xposition Yposition Zposition Zrotation Yrotation Xrotation
			JOINT LeftFoot
			{
				OFFSET 0.000000 0.000000 -39.900856
				CHANNELS 6 Xposition Yposition Zposition Zrotation Yrotation Xrotation
				JOINT LeftToeBase
				{
					OFFSET 0.000000 -15.261658 0.000002
					CHANNELS 6 Xposition Yposition Zposition Zrotation Yrotation Xrotation
					JOINT LeftToeBaseEnd
					{
						OFFSET 0.000000 -7.539978 0.000000
						CHANNELS 6 Xposition Yposition Zposition Zrotation Yrotation Xrotation
						End Site
						{
							OFFSET 0.000000 0.000000 0.100000
						}
					}
				}
				JOINT LeftLegEnd
				{
					OFFSET 0.000000 0.000000 0.000000
					CHANNELS 6 Xposition Yposition Zposition Zrotation Yrotation Xrotation
					End Site
					{
						OFFSET 0.000000 0.000000 0.100000
					}
				}
			}
			JOINT LeftUpLegEnd
			{
				OFFSET 0.000000 0.000000 0.000000
				CHANNELS 6 Xposition Yposition Zposition Zrotation Yrotation Xrotation
				End Site
				{
					OFFSET 0.000000 0.000000 0.099998
				}
			}
		}
	}
}
MOTION
Frames: 2
Frame Time: 0.016667
-5.038361 -14.935486 89.204033 12.101642 5.778974 -6.176768 -0.000000 2.080068 8.814236 -0.041140 -3.675231 7.896416 0.000001 0.000017 8.844146 -0.097244 -0.369295 3.617244 0.000013 0.000031 11.682271 0.310577 0.629826 2.662265 -0.000028 0.000027 11.746703 0.429559 2.115300 3.235394 -0.000013 -0.000000 17.658253 -4.130593 -9.490817 1.672710 -0.000004 0.000016 5.101531 -1.812214 -0.338543 -4.586817 -0.000011 0.000004 5.101511 -0.990626 -0.061709 -17.965429 -0.000005 0.000001 11.655070 0.000000 -0.000001 0.000000 -2.625389 0.000013 11.175227 10.755574 -66.093753 -0.064149 0.000038 0.000019 10.434715 20.028194 -57.226525 -35.937713 0.000038 0.000046 29.628422 19.384738 2.168258 115.634242 -0.000034 -0.000052 22.857605 2.718592 47.849249 9.383806 -2.867310 -2.944321 3.959549 33.448136 -29.128257 35.046390 0.000038 0.000000 3.350418 -38.531030 8.984235 -64.663730 -0.000008 -0.000015 3.756477 -25.945170 11.070390 -44.369168 0.000005 -0.000079 3.147364 0.000003 0.000002 0.000000 -0.086761 -2.345283 10.030876 42.782246 -116.856955 -38.076641 -0.000046 -0.000048 4.061062 -23.937615 -74.961545 31.540519 -0.000011 -0.000061 3.248840 -24.437543 -74.961545 31.540482 -0.000076 -0.000003 2.639697 -0.000000 -0.000001 0.000002 0.104088 -0.006853 9.502876 34.784900 -113.056078 -26.598089 -0.000027 -0.000006 4.568634 -9.200562 -76.228757 12.347595 -0.000027 0.000014 3.654938 -9.700557 -76.228716 12.348957 -0.000030 -0.000005 2.741230 0.000001 0.000001 -0.000004 0.086761 2.267487 8.921705 9.702793 -118.028865 3.182728 -0.000027 -0.000061 4.061123 17.946906 -80.799751 -22.186777 0.000027 -0.000085 3.654972 18.948347 -80.799697 -22.188189 -0.000025 -0.000003 2.741229 -0.000000 -0.000001 0.000001 -0.173447 4.467104 7.976959 -6.431789 -122.879611 24.323306 -0.000038 -0.000145 3.350410 43.762911 -76.813072 -56.057295 -0.000015 -0.000076 2.842752 45.762841 -76.813079 -56.057231 -0.000026 -0.000071 2.639709 0.000002 0.000001 0.000001 0.000016 0.000008 0.000003 -0.000001 -0.000001 -0.000001 -0.000032 0.000003 -0.000013 -0.000000 0.000000 0.000001 2.625404 -0.000002 11.175208 -8.897480 68.526489 -0.365499 0.000023 -0.000004 10.813648 -29.976157 65.568293 -44.475443 0.000031 0.000000 28.724794 -16.015016 1.801608 124.844697 0.644363 0.328829 25.716162 7.148323 -54.888794 4.809881 2.867319 -2.944336 3.959534 -33.448133 29.128284 35.046387 -0.000008 0.000000 3.350445 38.531047 -8.984243 -64.663696 -0.000053 -0.000015 3.756512 25.945158 -11.070381 -44.369179 -0.000038 0.000004 3.100009 -0.000001 -0.000000 -0.000001 0.086815 -2.345303 10.030926 -5.820774 102.886213 -13.969893 0.000004 -0.000002 4.061104 -16.794831 70.990719 -24.075816 -0.000027 0.000021 3.248955 -17.294872 70.990725 -24.075860 -0.000018 -0.000001 2.639705 0.000000 -0.000001 0.000000 -0.104029 -0.006751 9.502918 -28.858256 103.140132 -30.576943 0.000036 -0.000042 4.568741 -5.676513 70.842087 -8.676254 0.000032 -0.000079 3.655041 -6.176510 70.842073 -8.676242 -0.000034 0.000008 2.741278 -0.000001 0.000001 -0.000000 -0.086731 2.267430 8.921761 -41.509228 111.524032 -35.558078 0.000015 -0.000016 4.061176 8.443817 74.184276 12.469417 0.000010 0.000000 3.654999 9.443809 74.184310 12.469428 -0.000074 0.000004 2.741232 -0.000000 0.000001 -0.000000 0.173485 4.467236 7.976959 -58.740610 116.363884 -44.047036 0.000000 -0.000034 3.350430 23.555289 71.314961 35.083294 -0.000015 0.000011 2.842815 25.555346 71.315009 35.083366 -0.000034 0.000018 2.639720 -0.000003 0.000000 0.000001 0.000029 -0.000003 0.000007 0.000000 -0.000001 -0.000003 -0.000002 -0.000004 0.000002 0.000000 -0.000001 -0.000001 -11.289938 -0.000015 -0.000000 -6.821308 10.615396 0.376978 -0.000008 0.000073 -38.200302 -0.678749 0.314059 24.827833 0.000008 -0.000019 -39.900890 -14.592774 -0.951973 31.415892 0.000005 -15.261698 0.000039 0.010721 1.852024 -21.988887 0.000031 -7.370682 -0.000001 0.000003 -0.000001 -0.000003 0.000009 0.000003 0.000002 -0.000000 0.000001 0.000000 0.000000 0.000056 -0.000006 0.000001 -0.000001 0.000001 11.315701 -0.000005 0.000011 -5.810017 -11.254644 -5.246846 0.000033 0.000041 -38.200340 0.916212 -0.415232 24.377891 0.000017 0.000020 -39.900848 3.321852 1.836586 18.508168 -0.000016 -15.261710 0.000027 -1.267715 -0.475211 -22.470416 -0.000034 -7.539975 -0.000000 -0.000000 -0.000001 -0.000000 -0.000004 0.000003 0.000001 -0.000000 -0.000001 0.000001 0.000036 -0.000004 0.000001 0.000001 0.000001 -0.000000 
-5.877045 -14.952942 89.402496 12.650515 5.691854 -5.779015 0.000007 2.080067 8.814243 -0.082040 -3.754011 7.493318 -0.000013 -0.000022 8.844158 -0.102173 -0.308114 3.521939 0.000009 -0.000029 11.682281 -0.018156 0.646317 2.490899 0.000000 -0.000015 11.746710 0.234596 2.257161 2.983854 0.000000 -0.000010 17.658257 -4.514911 -9.791318 1.733529 -0.000011 -0.000010 5.101504 -2.194441 -0.188836 -4.483581 -0.000012 -0.000003 5.101513 -1.018615 -0.071627 -17.970800 -0.000002 -0.000001 11.655058 0.000000 -0.000001 -0.000000 -2.625397 0.000021 11.175217 10.947829 -65.773697 -0.066212 -0.000023 0.000015 10.434723 20.680689 -58.148214 -35.480162 0.000031 0.000023 29.628429 19.188597 2.208659 116.880506 -0.000019 0.000005 22.857609 1.274586 47.465990 9.423346 -2.867338 -2.944275 3.959564 33.448164 -29.128264 35.046390 -0.000069 0.000000 3.350388 -38.531040 8.984246 -64.663703 -0.000008 0.000084 3.756470 -25.945140 11.070365 -44.369155 -0.000011 -0.000060 3.147344 -0.000000 -0.000001 -0.000001 -0.086800 -2.345266 10.030960 42.179215 -117.135422 -36.613202 0.000008 -0.000059 4.061092 -24.682992 -75.268855 32.311774 -0.000015 -0.000040 3.248840 -25.182998 -75.268876 32.311808 -0.000071 -0.000021 2.639711 0.000001 -0.000002 -0.000004 0.104073 -0.006834 9.502884 34.129786 -113.406180 -25.321328 -0.000011 0.000030 4.568707 -9.506066 -76.552856 12.658935 -0.000015 -0.000026 3.654970 -10.006081 -76.552856 12.660872 -0.000044 -0.000011 2.741233 0.000002 -0.000001 -0.000001 0.086731 2.267466 8.921707 9.553609 -118.398543 3.970076 -0.000019 -0.000093 4.061094 18.496948 -81.010019 -22.742259 0.000034 -0.000082 3.654989 19.496913 -81.010012 -22.742795 -0.000031 -0.000008 2.741223 -0.000000 -0.000001 -0.000002 -0.173508 4.467152 7.976982 -6.247649 -123.286526 25.177245 -0.000042 -0.000069 3.350420 44.243817 -76.886053 -56.551217 0.000008 -0.000069 2.842781 46.243840 -76.886046 -56.551190 -0.000005 -0.000061 2.639724 -0.000001 0.000001 -0.000002 -0.000024 0.000036 -0.000018 0.000004 -0.000004 -0.000000 -0.000003 0.000018 -0.000004 -0.000002 0.000000 0.000000 2.625381 -0.000021 11.175212 -9.019532 68.507767 -0.356949 -0.000023 -0.000011 10.813618 -30.413852 66.987313 -43.023488 -0.000011 -0.000015 28.724842 -15.643358 1.953954 127.073088 0.644341 0.328819 25.716158 8.349884 -55.760042 5.429623 2.867277 -2.944321 3.959534 -33.784595 29.909941 33.999958 -0.000031 -0.000031 3.350487 40.091383 -8.393306 -67.258778 -0.000023 0.000000 3.756554 27.113993 -11.064387 -46.231867 -0.000019 0.000002 3.100003 -0.000001 0.000000 0.000000 0.086803 -2.345269 10.030930 -2.965159 109.022045 -9.432410 -0.000031 0.000019 4.061142 -23.104013 74.598923 -30.676654 0.000000 0.000072 3.248932 -23.603932 74.598882 -30.676575 -0.000035 -0.000002 2.639747 0.000000 -0.000000 0.000001 -0.104043 -0.006756 9.502968 -19.219464 108.627615 -19.048320 0.000017 -0.000078 4.568727 -8.105520 74.920748 -11.216211 0.000002 -0.000035 3.654972 -8.605502 74.920734 -11.216178 -0.000046 -0.000011 2.741274 0.000002 -0.000000 -0.000000 -0.086739 2.267418 8.921768 -32.718498 116.017525 -24.523953 -0.000027 0.000021 4.061188 12.856216 78.191172 17.010316 -0.000013 0.000016 3.655006 13.856227 78.191166 17.010332 -0.000023 -0.000008 2.741238 0.000000 0.000000 -0.000001 0.173485 4.467178 7.976974 -49.445645 119.340221 -31.735743 -0.000008 -0.000038 3.350471 32.562203 74.500186 44.500964 -0.000023 -0.000008 2.842812 34.562229 74.500186 44.500991 -0.000061 0.000000 2.639715 0.000000 -0.000001 0.000000 -0.000010 -0.000012 0.000008 -0.000000 0.000001 -0.000003 -0.000029 -0.000009 -0.000000 0.000000 0.000000 -0.000001 -11.289939 0.000001 0.000003 -6.862226 10.434266 1.139292 0.000008 -0.000007 -38.200321 -0.731140 0.306089 22.716586 -0.000001 -0.000004 -39.900921 -13.885051 -0.380030 32.605342 0.000015 -15.261740 0.000037 0.017599 1.866078 -21.867850 0.000000 -7.370672 0.000003 0.000001 -0.000003 -0.000004 0.000013 0.000006 0.000000 -0.000001 0.000000 -0.000004 0.000000 -0.000003 -0.000001 0.000000 -0.000001 0.000000 11.315693 -0.000009 0.000015 -6.146527 -11.752202 -4.867218 0.000025 0.000041 -38.200329 1.042833 -0.433132 22.552153 -0.000008 -0.000008 -39.900837 3.058222 2.279601 19.746514 -0.000001 -15.261656 0.000012 -1.349752 -0.522875 -22.628256 -0.000026 -7.539979 -0.000001 0.000000 -0.000001 0.000001 0.000011 0.000004 -0.000001 -0.000001 -0.000001 0.000002 -0.000005 0.000062 0.000001 -0.000000 0.000001 0.000000 
